# xmcd
#
# Track frame offsets:
#  150
#  16265
#  37478
#  59829
#  84168
#  107508
#
# Disc length: 1609 seconds
#
# Revision: 2
# Processed by: cddbd v1.5.1PL0 Copyright (c) Steve Scherf et al.
# Submitted via: Collectorz.com_Music_Collector 6.9
#
DISCID=49064706
DTITLE=Smokin' Spitfires - Good Evening Mr. Blues
DYEAR=2004
DGENRE=Blues
TTITLE0=Cruisin' (For Your Love)
TTITLE1=It's The Blues Calling You
TTITLE2=Mojo Man
TTITLE3=Good Evening Mr. Blues
TTITLE4=Waiting For The Good Times
TTITLE5=Unnamed Instrumental Track
EXTD=
EXTT0=
EXTT1=
EXTT2=
EXTT3=
EXTT4=
EXTT5=
PLAYORDER=
